<svg id="visual" viewBox="0 0 900 600" width="900" height="600" xmlns="http://www.w3.org/2000/svg" xmlns:xlink="http://www.w3.org/1999/xlink" version="1.1"><g><g transform="translate(849 231)"><path d="M88.8 -30C100.5 7.4 85.6 52.3 53.4 76.4C21.2 100.5 -28.3 103.7 -60.4 80.9C-92.5 58.1 -107.3 9.2 -94.3 -29.8C-81.4 -68.8 -40.7 -98 -1.1 -97.6C38.5 -97.3 77 -67.4 88.8 -30Z" fill="none" stroke="#FCAF3C" stroke-width="20"></path></g><g transform="translate(238 56)"><path d="M73.5 -21.8C83.1 5.6 70.3 42.3 46.5 58.2C22.6 74.2 -12.1 69.4 -37.6 51C-63 32.7 -79.1 0.9 -71.3 -24C-63.5 -48.9 -31.7 -66.9 0.1 -66.9C32 -66.9 64 -49.1 73.5 -21.8Z" fill="none" stroke="#FCAF3C" stroke-width="20"></path></g><g transform="translate(404 365)"><path d="M37.6 -11.5C43.2 4.9 38.3 25.4 25.4 34.8C12.5 44.1 -8.4 42.2 -22 32C-35.6 21.7 -41.8 3.1 -36.9 -12.4C-32 -27.9 -16 -40.1 0 -40.1C16 -40.1 32 -27.9 37.6 -11.5Z" fill="none" stroke="#FCAF3C" stroke-width="20"></path></g><g transform="translate(36 343)"><path d="M63 -20.5C71.2 4.8 60.2 36.2 39.5 50.3C18.8 64.4 -11.6 61.1 -32.7 45.6C-53.9 30.1 -65.7 2.5 -58.7 -21.2C-51.7 -44.8 -25.9 -64.3 0.8 -64.6C27.4 -64.8 54.8 -45.8 63 -20.5Z" fill="none" stroke="#FCAF3C" stroke-width="20"></path></g><g transform="translate(681 511)"><path d="M79.3 -26C90.2 7.8 77.8 48.9 50.6 68.4C23.4 87.9 -18.7 85.7 -44.2 66C-69.6 46.2 -78.6 8.9 -68.5 -23.9C-58.3 -56.6 -29.2 -84.8 2.5 -85.6C34.2 -86.4 68.4 -59.9 79.3 -26Z" fill="none" stroke="#FCAF3C" stroke-width="20"></path></g></g></svg>