<svg id="visual" viewBox="0 0 900 600" width="900" height="600" xmlns="http://www.w3.org/2000/svg" xmlns:xlink="http://www.w3.org/1999/xlink" version="1.1"><rect x="0" y="0" width="900" height="600" fill="#00000000"></rect><defs><linearGradient id="grad1_0" x1="33.3%" y1="0%" x2="100%" y2="100%"><stop offset="20%" stop-color="#000000" stop-opacity="1"></stop><stop offset="80%" stop-color="#00000000" stop-opacity="1"></stop></linearGradient></defs><defs><linearGradient id="grad2_0" x1="0%" y1="0%" x2="66.7%" y2="100%"><stop offset="20%" stop-color="#00000000" stop-opacity="1"></stop><stop offset="80%" stop-color="#00000000" stop-opacity="1"></stop></linearGradient></defs><g transform="translate(900, 0)"><path d="M0 324.5C-28.7 312.9 -57.3 301.3 -74 276.3C-90.7 251.2 -95.5 212.6 -116 200.9C-136.5 189.3 -172.8 204.6 -202.2 202.2C-231.7 199.9 -254.3 179.8 -272.8 157.5C-291.3 135.2 -305.5 110.6 -313.4 84C-321.4 57.4 -322.9 28.7 -324.5 0L0 0Z" fill="#FBAE3C"></path></g><g transform="translate(0, 600)"><path d="M0 -324.5C23.9 -304.3 47.8 -284 74.8 -279.2C101.8 -274.3 131.7 -284.8 162.2 -281C192.8 -277.2 223.8 -259 226.3 -226.3C228.8 -193.5 202.8 -146.2 208.7 -120.5C214.7 -94.8 252.6 -90.8 277.2 -74.3C301.8 -57.8 313.2 -28.9 324.5 0L0 0Z" fill="#FBAE3C"></path></g></svg>