<svg id="visual" viewBox="0 0 900 600" width="900" height="600" xmlns="http://www.w3.org/2000/svg" xmlns:xlink="http://www.w3.org/1999/xlink" version="1.1"><path d="M0 368L21.5 379.3C43 390.7 86 413.3 128.8 420.7C171.7 428 214.3 420 257.2 416.3C300 412.7 343 413.3 385.8 405.7C428.7 398 471.3 382 514.2 386.8C557 391.7 600 417.3 642.8 430C685.7 442.7 728.3 442.3 771.2 430.2C814 418 857 394 878.5 382L900 370L900 601L878.5 601C857 601 814 601 771.2 601C728.3 601 685.7 601 642.8 601C600 601 557 601 514.2 601C471.3 601 428.7 601 385.8 601C343 601 300 601 257.2 601C214.3 601 171.7 601 128.8 601C86 601 43 601 21.5 601L0 601Z" fill="#fcaf3c"></path><path d="M0 454L21.5 445C43 436 86 418 128.8 410.7C171.7 403.3 214.3 406.7 257.2 410.7C300 414.7 343 419.3 385.8 420.3C428.7 421.3 471.3 418.7 514.2 424.2C557 429.7 600 443.3 642.8 453.8C685.7 464.3 728.3 471.7 771.2 469.3C814 467 857 455 878.5 449L900 443L900 601L878.5 601C857 601 814 601 771.2 601C728.3 601 685.7 601 642.8 601C600 601 557 601 514.2 601C471.3 601 428.7 601 385.8 601C343 601 300 601 257.2 601C214.3 601 171.7 601 128.8 601C86 601 43 601 21.5 601L0 601Z" fill="#febc31"></path><path d="M0 452L21.5 451.3C43 450.7 86 449.3 128.8 458.7C171.7 468 214.3 488 257.2 488.7C300 489.3 343 470.7 385.8 459.5C428.7 448.3 471.3 444.7 514.2 447.7C557 450.7 600 460.3 642.8 466.8C685.7 473.3 728.3 476.7 771.2 481C814 485.3 857 490.7 878.5 493.3L900 496L900 601L878.5 601C857 601 814 601 771.2 601C728.3 601 685.7 601 642.8 601C600 601 557 601 514.2 601C471.3 601 428.7 601 385.8 601C343 601 300 601 257.2 601C214.3 601 171.7 601 128.8 601C86 601 43 601 21.5 601L0 601Z" fill="#feca25"></path><path d="M0 515L21.5 513.3C43 511.7 86 508.3 128.8 504.3C171.7 500.3 214.3 495.7 257.2 500.2C300 504.7 343 518.3 385.8 525.3C428.7 532.3 471.3 532.7 514.2 529.3C557 526 600 519 642.8 510.2C685.7 501.3 728.3 490.7 771.2 488.3C814 486 857 492 878.5 495L900 498L900 601L878.5 601C857 601 814 601 771.2 601C728.3 601 685.7 601 642.8 601C600 601 557 601 514.2 601C471.3 601 428.7 601 385.8 601C343 601 300 601 257.2 601C214.3 601 171.7 601 128.8 601C86 601 43 601 21.5 601L0 601Z" fill="#fbd816"></path><path d="M0 564L21.5 562.2C43 560.3 86 556.7 128.8 557.5C171.7 558.3 214.3 563.7 257.2 561C300 558.3 343 547.7 385.8 546.8C428.7 546 471.3 555 514.2 559.5C557 564 600 564 642.8 560.2C685.7 556.3 728.3 548.7 771.2 548.5C814 548.3 857 555.7 878.5 559.3L900 563L900 601L878.5 601C857 601 814 601 771.2 601C728.3 601 685.7 601 642.8 601C600 601 557 601 514.2 601C471.3 601 428.7 601 385.8 601C343 601 300 601 257.2 601C214.3 601 171.7 601 128.8 601C86 601 43 601 21.5 601L0 601Z" fill="#f6e700"></path></svg>