<svg id="visual" viewBox="0 0 900 600" width="900" height="600" xmlns="http://www.w3.org/2000/svg" xmlns:xlink="http://www.w3.org/1999/xlink" version="1.1"><path d="M0 460L18.8 469C37.7 478 75.3 496 112.8 493C150.3 490 187.7 466 225.2 449.3C262.7 432.7 300.3 423.3 337.8 423.7C375.3 424 412.7 434 450.2 439.7C487.7 445.3 525.3 446.7 562.8 455.2C600.3 463.7 637.7 479.3 675.2 477.5C712.7 475.7 750.3 456.3 787.8 442C825.3 427.7 862.7 418.3 881.3 413.7L900 409L900 601L881.3 601C862.7 601 825.3 601 787.8 601C750.3 601 712.7 601 675.2 601C637.7 601 600.3 601 562.8 601C525.3 601 487.7 601 450.2 601C412.7 601 375.3 601 337.8 601C300.3 601 262.7 601 225.2 601C187.7 601 150.3 601 112.8 601C75.3 601 37.7 601 18.8 601L0 601Z" fill="#fcaf3c"></path><path d="M0 458L18.8 459.7C37.7 461.3 75.3 464.7 112.8 469.8C150.3 475 187.7 482 225.2 492.7C262.7 503.3 300.3 517.7 337.8 515.5C375.3 513.3 412.7 494.7 450.2 491.3C487.7 488 525.3 500 562.8 498.2C600.3 496.3 637.7 480.7 675.2 466.2C712.7 451.7 750.3 438.3 787.8 448.8C825.3 459.3 862.7 493.7 881.3 510.8L900 528L900 601L881.3 601C862.7 601 825.3 601 787.8 601C750.3 601 712.7 601 675.2 601C637.7 601 600.3 601 562.8 601C525.3 601 487.7 601 450.2 601C412.7 601 375.3 601 337.8 601C300.3 601 262.7 601 225.2 601C187.7 601 150.3 601 112.8 601C75.3 601 37.7 601 18.8 601L0 601Z" fill="#acb039"></path><path d="M0 532L18.8 538.2C37.7 544.3 75.3 556.7 112.8 552.7C150.3 548.7 187.7 528.3 225.2 514.2C262.7 500 300.3 492 337.8 501.7C375.3 511.3 412.7 538.7 450.2 535.5C487.7 532.3 525.3 498.7 562.8 491.2C600.3 483.7 637.7 502.3 675.2 516.8C712.7 531.3 750.3 541.7 787.8 539C825.3 536.3 862.7 520.7 881.3 512.8L900 505L900 601L881.3 601C862.7 601 825.3 601 787.8 601C750.3 601 712.7 601 675.2 601C637.7 601 600.3 601 562.8 601C525.3 601 487.7 601 450.2 601C412.7 601 375.3 601 337.8 601C300.3 601 262.7 601 225.2 601C187.7 601 150.3 601 112.8 601C75.3 601 37.7 601 18.8 601L0 601Z" fill="#61a656"></path><path d="M0 532L18.8 536.5C37.7 541 75.3 550 112.8 549.5C150.3 549 187.7 539 225.2 542.8C262.7 546.7 300.3 564.3 337.8 566.5C375.3 568.7 412.7 555.3 450.2 554.3C487.7 553.3 525.3 564.7 562.8 568.3C600.3 572 637.7 568 675.2 570.3C712.7 572.7 750.3 581.3 787.8 583.7C825.3 586 862.7 582 881.3 580L900 578L900 601L881.3 601C862.7 601 825.3 601 787.8 601C750.3 601 712.7 601 675.2 601C637.7 601 600.3 601 562.8 601C525.3 601 487.7 601 450.2 601C412.7 601 375.3 601 337.8 601C300.3 601 262.7 601 225.2 601C187.7 601 150.3 601 112.8 601C75.3 601 37.7 601 18.8 601L0 601Z" fill="#009473"></path></svg>